<svg xmlns="http://www.w3.org/2000/svg" width="340" height="200" viewBox="0 0 340 200"><style>* {
          font-family: 'Segoe UI', Ubuntu, "Helvetica Neue", Sans-Serif
        }</style><g class="gpsc-root"><rect x="1" y="1" rx="5" ry="5" height="99%" width="99.41176470588235%" stroke="#282a36" stroke-width="1" fill="#282a36" stroke-opacity="1"></rect><text x="30" y="40" class="gpsc-item" style="--gpsc-i: 0; font-size: 22px; fill: #ff79c6;">Top Languages by Commit</text><g transform="translate(0,40)"><g transform="translate(40,0)"><rect y="18" width="14" height="14" class="gpsc-item" style="--gpsc-i: 0; stroke-width: 1px;" fill="#b07219" stroke="#282a36"></rect><rect y="43.2" width="14" height="14" class="gpsc-item" style="--gpsc-i: 1; stroke-width: 1px;" fill="#dea584" stroke="#282a36"></rect><rect y="68.4" width="14" height="14" class="gpsc-item" style="--gpsc-i: 2; stroke-width: 1px;" fill="#000080" stroke="#282a36"></rect><rect y="93.60000000000002" width="14" height="14" class="gpsc-item" style="--gpsc-i: 3; stroke-width: 1px;" fill="#0e74ff" stroke="#282a36"></rect><rect y="118.80000000000001" width="14" height="14" class="gpsc-item" style="--gpsc-i: 4; stroke-width: 1px;" fill="#ef7a08" stroke="#282a36"></rect><text x="16.8" y="30" class="gpsc-item" style="--gpsc-i: 0; fill: #ffb86c; font-size: 14px;">Java</text><text x="16.8" y="55.2" class="gpsc-item" style="--gpsc-i: 1; fill: #ffb86c; font-size: 14px;">Rust</text><text x="16.8" y="80.4" class="gpsc-item" style="--gpsc-i: 2; fill: #ffb86c; font-size: 14px;">Lua</text><text x="16.8" y="105.60000000000002" class="gpsc-item" style="--gpsc-i: 3; fill: #ffb86c; font-size: 14px;">LigoLANG</text><text x="16.8" y="130.8" class="gpsc-item" style="--gpsc-i: 4; fill: #ffb86c; font-size: 14px;">OCaml</text></g><g transform="translate( 230, 80 )"><g class="arc" style="--gpsc-i: 0;"><path d="M3.67394039744206e-15,-60A60,60,0,0,1,13.187805007002659,58.53274125732773L7.692886254084884,34.14409906677451A35,35,0,0,0,2.1431318985078682e-15,-35Z" style="fill: #b07219; stroke-width: 2px;" stroke="#282a36"></path></g><g class="arc" style="--gpsc-i: 1;"><path d="M13.187805007002659,58.53274125732773A60,60,0,0,1,-46.48897871198427,-37.93118582797899L-27.118570915324156,-22.12652506632108A35,35,0,0,0,7.692886254084884,34.14409906677451Z" style="fill: #dea584; stroke-width: 2px;" stroke="#282a36"></path></g><g class="arc" style="--gpsc-i: 2;"><path d="M-46.48897871198427,-37.93118582797899A60,60,0,0,1,-28.520633130305022,-52.78800513228879L-16.63703599267793,-30.793002993835128A35,35,0,0,0,-27.118570915324156,-22.12652506632108Z" style="fill: #000080; stroke-width: 2px;" stroke="#282a36"></path></g><g class="arc" style="--gpsc-i: 3;"><path d="M-28.520633130305022,-52.78800513228879A60,60,0,0,1,-12.423693569429918,-58.699674940266114L-7.247154582167453,-34.24147704848857A35,35,0,0,0,-16.63703599267793,-30.793002993835128Z" style="fill: #0e74ff; stroke-width: 2px;" stroke="#282a36"></path></g><g class="arc" style="--gpsc-i: 4;"><path d="M-12.423693569429918,-58.699674940266114A60,60,0,0,1,-6.431252637433369e-14,-60L-3.7515640385027985e-14,-35A35,35,0,0,0,-7.247154582167453,-34.24147704848857Z" style="fill: #ef7a08; stroke-width: 2px;" stroke="#282a36"></path></g></g></g></g></svg>