<svg xmlns="http://www.w3.org/2000/svg" width="340" height="200" viewBox="0 0 340 200"><style>* {
          font-family: 'Segoe UI', Ubuntu, "Helvetica Neue", Sans-Serif
        }</style><g class="gpsc-root"><rect x="1" y="1" rx="5" ry="5" height="99%" width="99.41176470588235%" stroke="#e4e2e2" stroke-width="1" fill="#ffffff" stroke-opacity="1"></rect><text x="30" y="40" class="gpsc-item" style="--gpsc-i: 0; font-size: 22px; fill: #0366d6;">Top Languages by Commit</text><g transform="translate(0,40)"><g transform="translate(40,0)"><rect y="18" width="14" height="14" class="gpsc-item" style="--gpsc-i: 0; stroke-width: 1px;" fill="#b07219" stroke="#ffffff"></rect><rect y="43.2" width="14" height="14" class="gpsc-item" style="--gpsc-i: 1; stroke-width: 1px;" fill="#dea584" stroke="#ffffff"></rect><rect y="68.4" width="14" height="14" class="gpsc-item" style="--gpsc-i: 2; stroke-width: 1px;" fill="#000080" stroke="#ffffff"></rect><rect y="93.60000000000002" width="14" height="14" class="gpsc-item" style="--gpsc-i: 3; stroke-width: 1px;" fill="#0e74ff" stroke="#ffffff"></rect><rect y="118.80000000000001" width="14" height="14" class="gpsc-item" style="--gpsc-i: 4; stroke-width: 1px;" fill="#ef7a08" stroke="#ffffff"></rect><text x="16.8" y="30" class="gpsc-item" style="--gpsc-i: 0; fill: #586069; font-size: 14px;">Java</text><text x="16.8" y="55.2" class="gpsc-item" style="--gpsc-i: 1; fill: #586069; font-size: 14px;">Rust</text><text x="16.8" y="80.4" class="gpsc-item" style="--gpsc-i: 2; fill: #586069; font-size: 14px;">Lua</text><text x="16.8" y="105.60000000000002" class="gpsc-item" style="--gpsc-i: 3; fill: #586069; font-size: 14px;">LigoLANG</text><text x="16.8" y="130.8" class="gpsc-item" style="--gpsc-i: 4; fill: #586069; font-size: 14px;">OCaml</text></g><g transform="translate( 230, 80 )"><g class="arc" style="--gpsc-i: 0;"><path d="M3.67394039744206e-15,-60A60,60,0,0,1,18.613000841950615,57.03995266177511L10.857583824471192,33.273305719368814A35,35,0,0,0,2.1431318985078682e-15,-35Z" style="fill: #b07219; stroke-width: 2px;" stroke="#ffffff"></path></g><g class="arc" style="--gpsc-i: 1;"><path d="M18.613000841950615,57.03995266177511A60,60,0,0,1,-47.31169929182197,-36.89990664107719L-27.598491253562813,-21.52494554062836A35,35,0,0,0,10.857583824471192,33.273305719368814Z" style="fill: #dea584; stroke-width: 2px;" stroke="#ffffff"></path></g><g class="arc" style="--gpsc-i: 2;"><path d="M-47.31169929182197,-36.89990664107719A60,60,0,0,1,-27.67693478720439,-53.23520715452167L-16.14487862586923,-31.05387084013764A35,35,0,0,0,-27.598491253562813,-21.52494554062836Z" style="fill: #000080; stroke-width: 2px;" stroke="#ffffff"></path></g><g class="arc" style="--gpsc-i: 3;"><path d="M-27.67693478720439,-53.23520715452167A60,60,0,0,1,-12.030067581375144,-58.7816082970477L-7.017539422468834,-34.28927150661116A35,35,0,0,0,-16.14487862586923,-31.05387084013764Z" style="fill: #0e74ff; stroke-width: 2px;" stroke="#ffffff"></path></g><g class="arc" style="--gpsc-i: 4;"><path d="M-12.030067581375144,-58.7816082970477A60,60,0,0,1,-6.431252637433369e-14,-60L-3.7515640385027985e-14,-35A35,35,0,0,0,-7.017539422468834,-34.28927150661116Z" style="fill: #ef7a08; stroke-width: 2px;" stroke="#ffffff"></path></g></g></g></g></svg>